<svg xmlns="http://www.w3.org/2000/svg" xmlns:xlink="http://www.w3.org/1999/xlink" width="1572.11" height="3058" viewBox="0 0 1572.11 3058">
  <defs>
    <clipPath id="clip-path">
      <rect width="1572.11" height="3058" fill="none"/>
    </clipPath>
    <linearGradient id="linear-gradient" x1="0.102" y1="0.225" x2="0.851" y2="0.788" gradientUnits="objectBoundingBox">
      <stop offset="0" stop-color="#c56af9" stop-opacity="0"/>
      <stop offset="1" stop-color="#fbe2fc"/>
    </linearGradient>
  </defs>
  <g id="Repeat_Grid_1" data-name="Repeat Grid 1" clip-path="url(#clip-path)">
    <g transform="translate(102.5 -140)">
      <path id="blob_2_" data-name="blob (2)" d="M157.4,20.83c0,51.049-47.416,128.27-102.28,128.27C.056,149.1-47.6,101-47.6,49.947-47.6-.906.056-54.9,55.12-54.9,109.984-54.9,157.4-30.023,157.4,20.83Z" transform="translate(910.601 242.9)" fill="url(#linear-gradient)"/>
      <path id="blob_2_2" data-name="blob (2)" d="M124.165,28.112c0,55.958-39.729,140.6-85.7,140.6-46.137,0-86.066-52.73-86.066-108.687C-47.6,4.286-7.671-54.9,38.466-54.9,84.436-54.9,124.165-27.631,124.165,28.112Z" transform="translate(-54.9 194.9)" fill="url(#linear-gradient)"/>
      <path id="blob_2_3" data-name="blob (2)" d="M120.9,2.825c0,38.912-38.974,97.775-84.069,97.775C-8.429,100.6-47.6,63.933-47.6,25.02c0-38.763,39.171-79.92,84.431-79.92C81.926-54.9,120.9-35.937,120.9,2.825Z" transform="translate(332.377 376.03) rotate(-25)" fill="url(#linear-gradient)"/>
      <path id="blob_2_4" data-name="blob (2)" d="M54.781-16.33C54.781,9.67,31.1,49,3.7,49-23.8,49-47.6,24.5-47.6-1.5c0-25.9,23.8-53.4,51.3-53.4C31.1-54.9,54.781-42.23,54.781-16.33Z" transform="translate(716.41 515.785)" fill="url(#linear-gradient)"/>
      <path id="blob_2_5" data-name="blob (2)" d="M258.088,48.4c0,69.632-70.705,174.965-152.516,174.965C23.462,223.362-47.6,157.747-47.6,88.114-47.6,18.75,23.462-54.9,105.572-54.9,187.383-54.9,258.088-20.967,258.088,48.4Z" transform="translate(461.912 765.138)" fill="url(#linear-gradient)"/>
      <path id="blob_2_6" data-name="blob (2)" d="M120.9,2.825c0,38.912-38.974,97.775-84.069,97.775C-8.429,100.6-47.6,63.933-47.6,25.02c0-38.763,39.171-79.92,84.431-79.92C81.926-54.9,120.9-35.937,120.9,2.825Z" transform="matrix(0.809, 0.588, -0.588, 0.809, 1339.53, 472.222)" fill="url(#linear-gradient)"/>
      <path id="blob_2_7" data-name="blob (2)" d="M162.2,58.053c0,55-59.424,106.819-111.779,106.819-52.546,0-98.021-51.823-98.021-106.819C-47.6,3.269-2.124-54.9,50.421-54.9,102.776-54.9,162.2,3.269,162.2,58.053Z" transform="translate(1053.25 786.742) rotate(-74)" fill="url(#linear-gradient)"/>
    </g>
    <g transform="translate(102.5 719)">
      <path id="blob_2_8" data-name="blob (2)" d="M157.4,20.83c0,51.049-47.416,128.27-102.28,128.27C.056,149.1-47.6,101-47.6,49.947-47.6-.906.056-54.9,55.12-54.9,109.984-54.9,157.4-30.023,157.4,20.83Z" transform="translate(910.601 242.9)" fill="url(#linear-gradient)"/>
      <path id="blob_2_9" data-name="blob (2)" d="M124.165,28.112c0,55.958-39.729,140.6-85.7,140.6-46.137,0-86.066-52.73-86.066-108.687C-47.6,4.286-7.671-54.9,38.466-54.9,84.436-54.9,124.165-27.631,124.165,28.112Z" transform="translate(-54.9 194.9)" fill="url(#linear-gradient)"/>
      <path id="blob_2_10" data-name="blob (2)" d="M120.9,2.825c0,38.912-38.974,97.775-84.069,97.775C-8.429,100.6-47.6,63.933-47.6,25.02c0-38.763,39.171-79.92,84.431-79.92C81.926-54.9,120.9-35.937,120.9,2.825Z" transform="translate(332.377 376.03) rotate(-25)" fill="url(#linear-gradient)"/>
      <path id="blob_2_11" data-name="blob (2)" d="M54.781-16.33C54.781,9.67,31.1,49,3.7,49-23.8,49-47.6,24.5-47.6-1.5c0-25.9,23.8-53.4,51.3-53.4C31.1-54.9,54.781-42.23,54.781-16.33Z" transform="translate(716.41 515.785)" fill="url(#linear-gradient)"/>
      <path id="blob_2_12" data-name="blob (2)" d="M258.088,48.4c0,69.632-70.705,174.965-152.516,174.965C23.462,223.362-47.6,157.747-47.6,88.114-47.6,18.75,23.462-54.9,105.572-54.9,187.383-54.9,258.088-20.967,258.088,48.4Z" transform="translate(461.912 765.138)" fill="url(#linear-gradient)"/>
      <path id="blob_2_13" data-name="blob (2)" d="M120.9,2.825c0,38.912-38.974,97.775-84.069,97.775C-8.429,100.6-47.6,63.933-47.6,25.02c0-38.763,39.171-79.92,84.431-79.92C81.926-54.9,120.9-35.937,120.9,2.825Z" transform="matrix(0.809, 0.588, -0.588, 0.809, 1339.53, 472.222)" fill="url(#linear-gradient)"/>
      <path id="blob_2_14" data-name="blob (2)" d="M162.2,58.053c0,55-59.424,106.819-111.779,106.819-52.546,0-98.021-51.823-98.021-106.819C-47.6,3.269-2.124-54.9,50.421-54.9,102.776-54.9,162.2,3.269,162.2,58.053Z" transform="translate(1053.25 786.742) rotate(-74)" fill="url(#linear-gradient)"/>
    </g>
    <g transform="translate(102.5 1578)">
      <path id="blob_2_15" data-name="blob (2)" d="M157.4,20.83c0,51.049-47.416,128.27-102.28,128.27C.056,149.1-47.6,101-47.6,49.947-47.6-.906.056-54.9,55.12-54.9,109.984-54.9,157.4-30.023,157.4,20.83Z" transform="translate(910.601 242.9)" fill="url(#linear-gradient)"/>
      <path id="blob_2_16" data-name="blob (2)" d="M124.165,28.112c0,55.958-39.729,140.6-85.7,140.6-46.137,0-86.066-52.73-86.066-108.687C-47.6,4.286-7.671-54.9,38.466-54.9,84.436-54.9,124.165-27.631,124.165,28.112Z" transform="translate(-54.9 194.9)" fill="url(#linear-gradient)"/>
      <path id="blob_2_17" data-name="blob (2)" d="M120.9,2.825c0,38.912-38.974,97.775-84.069,97.775C-8.429,100.6-47.6,63.933-47.6,25.02c0-38.763,39.171-79.92,84.431-79.92C81.926-54.9,120.9-35.937,120.9,2.825Z" transform="translate(332.377 376.03) rotate(-25)" fill="url(#linear-gradient)"/>
      <path id="blob_2_18" data-name="blob (2)" d="M54.781-16.33C54.781,9.67,31.1,49,3.7,49-23.8,49-47.6,24.5-47.6-1.5c0-25.9,23.8-53.4,51.3-53.4C31.1-54.9,54.781-42.23,54.781-16.33Z" transform="translate(716.41 515.785)" fill="url(#linear-gradient)"/>
      <path id="blob_2_19" data-name="blob (2)" d="M258.088,48.4c0,69.632-70.705,174.965-152.516,174.965C23.462,223.362-47.6,157.747-47.6,88.114-47.6,18.75,23.462-54.9,105.572-54.9,187.383-54.9,258.088-20.967,258.088,48.4Z" transform="translate(461.912 765.138)" fill="url(#linear-gradient)"/>
      <path id="blob_2_20" data-name="blob (2)" d="M120.9,2.825c0,38.912-38.974,97.775-84.069,97.775C-8.429,100.6-47.6,63.933-47.6,25.02c0-38.763,39.171-79.92,84.431-79.92C81.926-54.9,120.9-35.937,120.9,2.825Z" transform="matrix(0.809, 0.588, -0.588, 0.809, 1339.53, 472.222)" fill="url(#linear-gradient)"/>
      <path id="blob_2_21" data-name="blob (2)" d="M162.2,58.053c0,55-59.424,106.819-111.779,106.819-52.546,0-98.021-51.823-98.021-106.819C-47.6,3.269-2.124-54.9,50.421-54.9,102.776-54.9,162.2,3.269,162.2,58.053Z" transform="translate(1053.25 786.742) rotate(-74)" fill="url(#linear-gradient)"/>
    </g>
    <g transform="translate(102.5 2437)">
      <path id="blob_2_22" data-name="blob (2)" d="M157.4,20.83c0,51.049-47.416,128.27-102.28,128.27C.056,149.1-47.6,101-47.6,49.947-47.6-.906.056-54.9,55.12-54.9,109.984-54.9,157.4-30.023,157.4,20.83Z" transform="translate(910.601 242.9)" fill="url(#linear-gradient)"/>
      <path id="blob_2_23" data-name="blob (2)" d="M124.165,28.112c0,55.958-39.729,140.6-85.7,140.6-46.137,0-86.066-52.73-86.066-108.687C-47.6,4.286-7.671-54.9,38.466-54.9,84.436-54.9,124.165-27.631,124.165,28.112Z" transform="translate(-54.9 194.9)" fill="url(#linear-gradient)"/>
      <path id="blob_2_24" data-name="blob (2)" d="M120.9,2.825c0,38.912-38.974,97.775-84.069,97.775C-8.429,100.6-47.6,63.933-47.6,25.02c0-38.763,39.171-79.92,84.431-79.92C81.926-54.9,120.9-35.937,120.9,2.825Z" transform="translate(332.377 376.03) rotate(-25)" fill="url(#linear-gradient)"/>
      <path id="blob_2_25" data-name="blob (2)" d="M54.781-16.33C54.781,9.67,31.1,49,3.7,49-23.8,49-47.6,24.5-47.6-1.5c0-25.9,23.8-53.4,51.3-53.4C31.1-54.9,54.781-42.23,54.781-16.33Z" transform="translate(716.41 515.785)" fill="url(#linear-gradient)"/>
      <path id="blob_2_26" data-name="blob (2)" d="M258.088,48.4c0,69.632-70.705,174.965-152.516,174.965C23.462,223.362-47.6,157.747-47.6,88.114-47.6,18.75,23.462-54.9,105.572-54.9,187.383-54.9,258.088-20.967,258.088,48.4Z" transform="translate(461.912 765.138)" fill="url(#linear-gradient)"/>
      <path id="blob_2_27" data-name="blob (2)" d="M120.9,2.825c0,38.912-38.974,97.775-84.069,97.775C-8.429,100.6-47.6,63.933-47.6,25.02c0-38.763,39.171-79.92,84.431-79.92C81.926-54.9,120.9-35.937,120.9,2.825Z" transform="matrix(0.809, 0.588, -0.588, 0.809, 1339.53, 472.222)" fill="url(#linear-gradient)"/>
      <path id="blob_2_28" data-name="blob (2)" d="M162.2,58.053c0,55-59.424,106.819-111.779,106.819-52.546,0-98.021-51.823-98.021-106.819C-47.6,3.269-2.124-54.9,50.421-54.9,102.776-54.9,162.2,3.269,162.2,58.053Z" transform="translate(1053.25 786.742) rotate(-74)" fill="url(#linear-gradient)"/>
    </g>
  </g>
</svg>
