<svg xmlns="http://www.w3.org/2000/svg" xmlns:xlink="http://www.w3.org/1999/xlink" width="1591.742" height="1063.42" viewBox="0 0 1591.742 1063.42">
  <defs>
    <linearGradient id="linear-gradient" x1="0.102" y1="0.225" x2="0.851" y2="0.788" gradientUnits="objectBoundingBox">
      <stop offset="0" stop-color="#c56af9" stop-opacity="0"/>
      <stop offset="1" stop-color="#fbe2fc"/>
    </linearGradient>
  </defs>
  <g id="Group_2" data-name="Group 2" transform="translate(122.132 74.92)">
    <path id="blob_2_" data-name="blob (2)" d="M109.3-1.439c0,36.038-36.291,90.552-78.282,90.552-42.144,0-78.618-33.959-78.618-70,0-35.9,36.474-74.016,78.618-74.016C73.009-54.9,109.3-37.338,109.3-1.439Z" transform="translate(1012.601 347.887)" fill="url(#linear-gradient)"/>
    <path id="blob_2_2" data-name="blob (2)" d="M124.165,28.112c0,55.958-39.729,140.6-85.7,140.6-46.137,0-86.066-52.73-86.066-108.687C-47.6,4.286-7.671-54.9,38.466-54.9,84.436-54.9,124.165-27.631,124.165,28.112Z" transform="translate(-54.9 194.9)" fill="url(#linear-gradient)"/>
    <path id="blob_2_3" data-name="blob (2)" d="M120.9,2.825c0,38.912-38.974,97.775-84.069,97.775C-8.429,100.6-47.6,63.933-47.6,25.02c0-38.763,39.171-79.92,84.431-79.92C81.926-54.9,120.9-35.937,120.9,2.825Z" transform="translate(332.377 376.03) rotate(-25)" fill="url(#linear-gradient)"/>
    <path id="blob_2_4" data-name="blob (2)" d="M15.773-34.291C15.773-20.4,1.115.617-15.846.617-32.868.617-47.6-12.474-47.6-26.367-47.6-40.206-32.868-54.9-15.846-54.9,1.115-54.9,15.773-48.13,15.773-34.291Z" transform="translate(721.476 567.15)" fill="url(#linear-gradient)"/>
    <path id="blob_2_5" data-name="blob (2)" d="M164,17.131c0,48.556-48.942,122-105.571,122C1.589,139.136-47.6,93.381-47.6,44.826-47.6-3.543,1.589-54.9,58.425-54.9,115.054-54.9,164-31.238,164,17.131Z" transform="translate(784.85 -20.02)" fill="url(#linear-gradient)"/>
    <path id="blob_2_6" data-name="blob (2)" d="M222.641,34.818c0,60.479-62.506,151.964-134.831,151.964-72.588,0-135.41-56.99-135.41-117.468C-47.6,9.068,15.222-54.9,87.81-54.9,160.134-54.9,222.641-25.428,222.641,34.818Z" transform="translate(461.912 801.717)" fill="url(#linear-gradient)"/>
    <path id="blob_2_7" data-name="blob (2)" d="M120.9,2.825c0,38.912-38.974,97.775-84.069,97.775C-8.429,100.6-47.6,63.933-47.6,25.02c0-38.763,39.171-79.92,84.431-79.92C81.926-54.9,120.9-35.937,120.9,2.825Z" transform="matrix(0.809, 0.588, -0.588, 0.809, 1339.53, 472.222)" fill="url(#linear-gradient)"/>
    <path id="blob_2_8" data-name="blob (2)" d="M162.2,58.053c0,55-59.424,106.819-111.779,106.819-52.546,0-98.021-51.823-98.021-106.819C-47.6,3.269-2.124-54.9,50.421-54.9,102.776-54.9,162.2,3.269,162.2,58.053Z" transform="translate(1053.25 786.742) rotate(-74)" fill="url(#linear-gradient)"/>
    <path id="blob_2_9" data-name="blob (2)" d="M162.2,58.053c0,55-59.424,106.819-111.779,106.819-52.546,0-98.021-51.823-98.021-106.819C-47.6,3.269-2.124-54.9,50.421-54.9,102.776-54.9,162.2,3.269,162.2,58.053Z" transform="translate(-56.238 835.742) rotate(-74)" fill="url(#linear-gradient)"/>
  </g>
</svg>
